<svg xmlns="http://www.w3.org/2000/svg" viewBox="0 0 24 24" fill="none" stroke="currentColor" stroke-width="2.25" stroke-linecap="round" stroke-linejoin="round" width="24" height="24" style="color:#C6923A"><path d="M3 13.5v3a1 1 0 0 0 1 1h1.5a2 2 0 0 1 4 0h5a2 2 0 0 1 4 0H20a1 1 0 0 0 1-1v-3l-2-2.5h-3l-2-4H9L7 11H4z" fill="currentColor" opacity="0.15" stroke="none"></path><path d="M3 16.5v-3a1 1 0 0 1 .4-.8L5 11h2l2-4h6l2 4h2l1.6 1.7a1 1 0 0 1 .4.8v3"></path><path d="M9 7h6"></path><path d="M10.5 5v2"></path><path d="M13.5 5v2"></path><circle cx="7.5" cy="17.5" r="2"></circle><circle cx="16.5" cy="17.5" r="2"></circle><path d="M1 19.5h3.5"></path><path d="M18.5 19.5H23"></path><path d="M9.5 19.5h5"></path></svg>