<svg xmlns="http://www.w3.org/2000/svg" viewBox="0 0 24 24" fill="none" stroke="currentColor" stroke-width="2.25" stroke-linecap="round" stroke-linejoin="round" width="24" height="24" style="color:#C6923A"><path d="M3 13v4h2a2 2 0 0 1 4 0h6a2 2 0 0 1 4 0h2v-4l-2-2h-2l-1.5-3H8.5L7 11H5z" fill="currentColor" opacity="0.15" stroke="none"></path><path d="M3 16.5v-3.5l2-2h2l1.5-3h7l1.5 3h2l2 2v3.5"></path><circle cx="7" cy="17.5" r="2"></circle><circle cx="17" cy="17.5" r="2"></circle><path d="M1 19.5h3"></path><path d="M19 19.5h4"></path><path d="M9 19.5h6"></path><path d="M10.5 5l1.5 3"></path><path d="M13.5 5l-1.5 3"></path><path d="M10 4h4"></path><path d="M9 4.5l.5-2h5l.5 2"></path><path d="M3 13h18"></path></svg>