<svg xmlns="http://www.w3.org/2000/svg" viewBox="0 0 24 24" fill="none" stroke="currentColor" stroke-width="2.25" stroke-linecap="round" stroke-linejoin="round" width="24" height="24" style="color:#C6923A"><path d="M2 9a1 1 0 0 1 1-1h10v9H2V9z" fill="currentColor" opacity="0.15" stroke="none"></path><path d="M2 17V9a1 1 0 0 1 1-1h10v9"></path><path d="M13 8v5h3.5l2.5 2v2"></path><circle cx="6" cy="17.5" r="2"></circle><circle cx="15" cy="17.5" r="2"></circle><path d="M2 17h2"></path><path d="M8 17h5"></path><path d="M17 17h2.5"></path><path d="M5 11l3 3"></path><path d="M8 11l-3 3"></path><path d="M20 9h2"></path><path d="M20 11.5h3"></path></svg>