<svg xmlns="http://www.w3.org/2000/svg" viewBox="0 0 24 24" fill="none" stroke="currentColor" stroke-width="2.25" stroke-linecap="round" stroke-linejoin="round" width="24" height="24" style="color:#C6923A"><path d="M12 2l7 3v5c0 5-3 9-7 10.5C8 19 5 15 5 10V5z" fill="currentColor" opacity="0.15" stroke="none"></path><path d="M12 2l7 3v5c0 5-3 9-7 10.5C8 19 5 15 5 10V5z"></path><path d="M9 11l2 2 4-4"></path><path d="M2 5h2"></path><path d="M2 8h3"></path><path d="M2 11h3"></path><path d="M20 5h2"></path><path d="M19 8h3"></path><path d="M19 11h3"></path></svg>