<svg xmlns="http://www.w3.org/2000/svg" viewBox="0 0 24 24" fill="none" stroke="currentColor" stroke-width="1.5" stroke-linecap="round" stroke-linejoin="round" width="24" height="24"><path d="M12 14m-6 0a6 6 0 1 0 12 0a6 6 0 1 0-12 0" fill="currentColor" opacity="0.08" stroke="none"></path><circle cx="12" cy="14" r="6"></circle><circle cx="12" cy="14" r="2.5"></circle><circle cx="12" cy="14" r=".75" fill="currentColor"></circle><path d="M4.5 5l2.5 2.5"></path><path d="M4.5 5c-1-1-1-2.5 0-3.5s2.5-1 3.5 0"></path><path d="M19.5 23l-2.5-2.5"></path><path d="M19.5 23c1 1 2.5 1 3.5 0s1-2.5 0-3.5"></path><path d="M7 7.5l10 10"></path></svg>