<svg xmlns="http://www.w3.org/2000/svg" viewBox="0 0 24 24" fill="none" stroke="currentColor" stroke-width="1.5" stroke-linecap="round" stroke-linejoin="round" width="24" height="24"><path d="M2 13v3.5a1 1 0 0 0 1 1h18a1 1 0 0 0 1-1V13l-2-2h-2l-2-4H8L6 11H4z" fill="currentColor" opacity="0.08" stroke="none"></path><path d="M2 16.5V13l2-2h2l2-4h8l2 4h2l2 2v3.5"></path><path d="M9 7h6"></path><path d="M10 5v2"></path><path d="M14 5v2"></path><circle cx="6.5" cy="17.5" r="2"></circle><circle cx="12" cy="17.5" r="2"></circle><circle cx="17.5" cy="17.5" r="2"></circle><path d="M1 19.5h2.5"></path><path d="M19.5 19.5H23"></path><path d="M8.5 19.5h1"></path><path d="M14 19.5h1.5"></path></svg>