<svg xmlns="http://www.w3.org/2000/svg" viewBox="0 0 100 100" fill="none" role="img" aria-label="Haul Command Logo Mark">
  <defs>
    <linearGradient id="gold-main" x1="0%" y1="0%" x2="100%" y2="100%">
      <stop offset="0%" stop-color="#E0B05C"/>
      <stop offset="50%" stop-color="#C6923A"/>
      <stop offset="100%" stop-color="#8A6428"/>
    </linearGradient>
    <linearGradient id="gold-chevron" x1="0%" y1="0%" x2="0%" y2="100%">
      <stop offset="0%" stop-color="#E0B05C"/>
      <stop offset="100%" stop-color="#C6923A"/>
    </linearGradient>
  </defs>
  <!-- Hexagon outer border -->
  <path d="M50 6 L88 28 L88 72 L50 94 L12 72 L12 28 Z" fill="none" stroke="url(#gold-main)" stroke-width="3"/>
  <!-- Hexagon inner fill -->
  <path d="M50 12 L83 30.5 L83 69.5 L50 88 L17 69.5 L17 30.5 Z" fill="#121212"/>
  <!-- Inner border line -->
  <path d="M50 16 L79 33 L79 67 L50 84 L21 67 L21 33 Z" fill="none" stroke="url(#gold-main)" stroke-width="1.5" opacity="0.5"/>
  <!-- Star at top -->
  <polygon points="50,21 52.4,28.2 60,28.2 53.8,32.8 56.2,40 50,35.4 43.8,40 46.2,32.8 40,28.2 47.6,28.2" fill="url(#gold-main)"/>
  <!-- Chevron 1 (top) -->
  <path d="M32 47 L50 37 L68 47" fill="none" stroke="url(#gold-chevron)" stroke-width="5.5" stroke-linecap="round" stroke-linejoin="round"/>
  <!-- Chevron 2 (middle) -->
  <path d="M32 56 L50 46 L68 56" fill="none" stroke="url(#gold-chevron)" stroke-width="5.5" stroke-linecap="round" stroke-linejoin="round"/>
  <!-- Chevron 3 (bottom) -->
  <path d="M32 65 L50 55 L68 65" fill="none" stroke="url(#gold-chevron)" stroke-width="5.5" stroke-linecap="round" stroke-linejoin="round"/>
</svg>
