<svg xmlns="http://www.w3.org/2000/svg" viewBox="0 0 24 24" fill="none" stroke="currentColor" stroke-width="1.75" stroke-linecap="round" stroke-linejoin="round" width="24" height="24" style="opacity:0.4"><path d="M2 8h20v12a1 1 0 0 1-1 1H3a1 1 0 0 1-1-1V8z" fill="currentColor" opacity="0.06" stroke="none"></path><path d="M3 5v3"></path><path d="M7 5v3"></path><path d="M11 5v3"></path><path d="M15 5v3"></path><path d="M19 5v3"></path><path d="M2 6h18.5"></path><path d="M2 7.5h18.5"></path><path d="M2 8h20v12a1 1 0 0 1-1 1H3a1 1 0 0 1-1-1V8z"></path><rect x="4" y="11" width="7" height="4" rx=".5"></rect><path d="M7.5 11v4"></path><path d="M14 14h5"></path><path d="M14 16h5"></path><path d="M14 18h5"></path></svg>