<svg xmlns="http://www.w3.org/2000/svg" viewBox="0 0 24 24" fill="none" stroke="currentColor" stroke-width="1.75" stroke-linecap="round" stroke-linejoin="round" width="24" height="24" style="opacity:0.4"><path d="M12 2l3 6h6l-5 4 2 6-6-3.5L6 18l2-6-5-4h6z" fill="currentColor" opacity="0.06" stroke="none"></path><path d="M6 21v-7"></path><path d="M4 14h4v7H4z"></path><path d="M10 21V10"></path><path d="M8 10h4v11H8z"></path><path d="M14 21v-5"></path><path d="M12 16h4v5h-4z"></path><path d="M18 21v-3"></path><path d="M16 18h4v3h-4z"></path><path d="M10 10l1-4 1 1.5L13 3l1 4.5L15 6l1 4"></path><circle cx="12" cy="6" r="1" fill="currentColor"></circle></svg>