<svg xmlns="http://www.w3.org/2000/svg" viewBox="0 0 24 24" fill="none" stroke="currentColor" stroke-width="1.75" stroke-linecap="round" stroke-linejoin="round" width="24" height="24"><path d="M2 17V8a1 1 0 0 1 1-1h11v3h3l2 3v4"></path><path d="M2 13h12"></path><path d="M6 7L3 3"></path><path d="M6 7l1-5"></path><path d="M3 4.5c-1 0-1.5.75-1.5 1.25S2 7 3 7s1.5-.75 1.5-1.25S4 4.5 3 4.5z"></path><circle cx="7" cy="18" r="2"></circle><circle cx="15" cy="18" r="2"></circle><path d="M2 17h3"></path><path d="M9 17h4"></path><path d="M17 17h2"></path></svg>