<svg xmlns="http://www.w3.org/2000/svg" viewBox="0 0 24 24" fill="none" stroke="currentColor" stroke-width="1.75" stroke-linecap="round" stroke-linejoin="round" width="24" height="24"><path d="M1 9a1 1 0 0 1 1-1h16a1 1 0 0 1 1 1v7H1V9z" fill="currentColor" opacity="0.12" stroke="none"></path><path d="M1 16V9a1 1 0 0 1 1-1h16a1 1 0 0 1 1 1v7"></path><path d="M3 16v2.5"></path><path d="M1.5 18.5h3"></path><circle cx="7.5" cy="17" r="1.75"></circle><path d="M1 16h5"></path><path d="M10 16h9"></path><circle cx="2" cy="8" r=".5" fill="currentColor"></circle><rect x="15" y="2" width="7.5" height="9" rx="1"></rect><path d="M17.5 5h3"></path><path d="M17.5 7.5h2"></path><path d="M17 9.5c.5-.5 1.5-.5 2 0"></path></svg>