<svg xmlns="http://www.w3.org/2000/svg" viewBox="0 0 24 24" fill="none" stroke="currentColor" stroke-width="1.75" stroke-linecap="round" stroke-linejoin="round" width="24" height="24"><path d="M1 12v4.5h2.5a2 2 0 0 1 4 0h3a2 2 0 0 1 4 0h3a2 2 0 0 1 4 0H23v-2l-2-3h-3V8H3a1 1 0 0 0-1 1z" fill="currentColor" opacity="0.12" stroke="none"></path><path d="M15 7H3.5a1 1 0 0 0-1 1v8.5"></path><path d="M15 7v4h3.5l2.5 3v2.5"></path><path d="M2.5 12h13"></path><circle cx="5" cy="17.5" r="1.75"></circle><circle cx="11" cy="17.5" r="1.75"></circle><circle cx="17.5" cy="17.5" r="1.75"></circle><path d="M1 10h1.5"></path><path d="M21.5 10h1.5"></path></svg>