<svg xmlns="http://www.w3.org/2000/svg" viewBox="0 0 24 24" fill="none" stroke="currentColor" stroke-width="1.75" stroke-linecap="round" stroke-linejoin="round" width="24" height="24"><path d="M4 6h8v14H4V6z" fill="currentColor" opacity="0.12" stroke="none"></path><rect x="4" y="6" width="8" height="14" rx="1"></rect><rect x="6" y="8.5" width="4" height="3" rx=".5"></rect><path d="M12 9h2a1 1 0 0 1 1 1v4"></path><path d="M15 14c0 .5-.5 1-1 1"></path><path d="M3 20h10"></path><path d="M8 14v3"></path><path d="M6.5 15h3"></path><path d="M19 8v12"></path><path d="M17 10h4"></path><path d="M17 14h4"></path><path d="M17 18h4"></path><path d="M17 20h5"></path></svg>