<svg xmlns="http://www.w3.org/2000/svg" viewBox="0 0 24 24" fill="none" stroke="currentColor" stroke-width="1.75" stroke-linecap="round" stroke-linejoin="round" width="24" height="24"><path d="M3 4h14v10H8l-3 3v-3H3V4z" fill="currentColor" opacity="0.12" stroke="none"></path><path d="M3 4a1 1 0 0 1 1-1h12a1 1 0 0 1 1 1v9a1 1 0 0 1-1 1H8l-3 3v-3H4a1 1 0 0 1-1-1V4z"></path><path d="M6 7h8"></path><path d="M6 10h5"></path><path d="M19 8h2a1 1 0 0 1 1 1v9a1 1 0 0 1-1 1h-2v3l-3-3h-4a1 1 0 0 1-1-1v-1"></path></svg>