<svg xmlns="http://www.w3.org/2000/svg" viewBox="0 0 24 24" fill="none" stroke="currentColor" stroke-width="1.75" stroke-linecap="round" stroke-linejoin="round" width="24" height="24"><path d="M3 3.5h10a1 1 0 0 1 1 1v16a1 1 0 0 1-1 1H3a1 1 0 0 1-1-1V4.5a1 1 0 0 1 1-1z" fill="currentColor" stroke="none"></path><g stroke="currentColor" opacity="0.6"><path d="M4 2.5h10a1 1 0 0 1 1 1v17a1 1 0 0 1-1 1H4a1 1 0 0 1-1-1v-17a1 1 0 0 1 1-1z"></path><path d="M6 8c1-1.5 3-1.5 3 0s-2 1.5-1 3c.5.75 1.5 1 2.5.5"></path><path d="M6 15h6"></path><path d="M6 18h4"></path><path d="M18 4v5c0 2.5-2 4.5-3.5 5.5"></path><path d="M18 4c1.5 0 3.5 1 3.5 1v4c0 2.5-2 4.5-3.5 5.5"></path><path d="M17.5 8l1.5 1.5 2.5-2.5"></path></g></svg>