<svg xmlns="http://www.w3.org/2000/svg" viewBox="0 0 24 24" fill="none" stroke="currentColor" stroke-width="1.75" stroke-linecap="round" stroke-linejoin="round" width="24" height="24"><path d="M4 6a4 4 0 0 1 8 0v3H4V6z" fill="currentColor" stroke="none"></path><g stroke="currentColor" opacity="0.6"><path d="M4 6a4 4 0 0 1 8 0v3H4V6z"></path><path d="M2 9h12v3a1 1 0 0 1-1 1H3a1 1 0 0 1-1-1V9z"></path><path d="M8 13v2"></path><path d="M12 6h4"></path><path d="M14 3v6"></path><circle cx="8" cy="6" r="1"></circle><path d="M14 14l4-2 4 2"></path><path d="M14 17l4-2 4 2"></path><path d="M14 20l4-2 4 2"></path></g></svg>