<svg xmlns="http://www.w3.org/2000/svg" viewBox="0 0 24 24" fill="none" stroke="currentColor" stroke-width="1.75" stroke-linecap="round" stroke-linejoin="round" width="24" height="24"><path d="M3 8h18v13H3z" fill="currentColor" stroke="none"></path><g stroke="currentColor" opacity="0.6"><path d="M3 8l2-5h14l2 5"></path><path d="M3 8v13h18V8"></path><path d="M3 8h18"></path><path d="M7 8v2a2 2 0 0 1-4 0"></path><path d="M11 8v2a2 2 0 0 1-4 0"></path><path d="M15 8v2a2 2 0 0 1-4 0"></path><path d="M19 8v2a2 2 0 0 1-4 0"></path><path d="M21 10a2 2 0 0 1-2-2"></path><rect x="8" y="15" width="4" height="6" rx=".5"></rect><rect x="14" y="15" width="4" height="3" rx=".5"></rect></g></svg>