<svg xmlns="http://www.w3.org/2000/svg" viewBox="0 0 24 24" fill="none" stroke="currentColor" stroke-width="1.75" stroke-linecap="round" stroke-linejoin="round" width="24" height="24"><path d="M3 8h12v13H3z" fill="currentColor" stroke="none"></path><g stroke="currentColor" opacity="0.6"><path d="M3 21V8a1 1 0 0 1 1-1h10a1 1 0 0 1 1 1v13"></path><path d="M3 7l6-4 6 4"></path><path d="M6 11h2v2H6z"></path><path d="M10 11h2v2h-2z"></path><rect x="7" y="16" width="4" height="5" rx=".5"></rect><path d="M18 10v11"></path><path d="M18 10c0-2 2-3 4-2"></path><path d="M18 14c0-2 2-3 4-2"></path><circle cx="20" cy="18" r="1.5"></circle><path d="M15 21h7"></path></g></svg>