<svg xmlns="http://www.w3.org/2000/svg" width="24" height="24" viewBox="0 0 32 40" fill="none" stroke="currentColor" stroke-width="1.75" stroke-linecap="round" stroke-linejoin="round"><path d="M16 38c0 0-13-14-13-22a13 13 0 0 1 26 0c0 8-13 22-13 22z" fill="currentColor" opacity="0.15" stroke="currentColor" stroke-width="1.5"></path><g transform="translate(4,3)" stroke-width="1.5"><rect x="3" y="10" width="8" height="6" rx=".5"></rect><path d="M7 10v6"></path><rect x="13" y="10" width="8" height="6" rx=".5"></rect><path d="M17 10v6"></path><path d="M1 18h22"></path><path d="M2 18l1-2"></path><path d="M21 18l1-2"></path><circle cx="6" cy="19.5" r="1.25"></circle><circle cx="12" cy="19.5" r="1.25"></circle><circle cx="18" cy="19.5" r="1.25"></circle><path d="M1 21h22"></path></g></svg>