<svg xmlns="http://www.w3.org/2000/svg" width="24" height="24" viewBox="0 0 32 40" fill="none" stroke="currentColor" stroke-width="1.75" stroke-linecap="round" stroke-linejoin="round"><path d="M16 38c0 0-13-14-13-22a13 13 0 0 1 26 0c0 8-13 22-13 22z" fill="currentColor" opacity="0.15" stroke="currentColor" stroke-width="1.5"></path><g transform="translate(4,3)" stroke-width="1.5"><path d="M3 4a1 1 0 0 1 1-1h12a1 1 0 0 1 1 1v9a1 1 0 0 1-1 1H8l-3 3v-3H4a1 1 0 0 1-1-1V4z"></path><path d="M6 7h8"></path><path d="M6 10h5"></path><path d="M19 8h2a1 1 0 0 1 1 1v9a1 1 0 0 1-1 1h-2v3l-3-3h-4a1 1 0 0 1-1-1v-1"></path></g></svg>