<svg xmlns="http://www.w3.org/2000/svg" width="24" height="24" viewBox="0 0 32 40" fill="none" stroke="currentColor" stroke-width="1.75" stroke-linecap="round" stroke-linejoin="round"><path d="M16 38c0 0-13-14-13-22a13 13 0 0 1 26 0c0 8-13 22-13 22z" fill="currentColor" opacity="0.15" stroke="currentColor" stroke-width="1.5"></path><g transform="translate(4,3)" stroke-width="1.5"><path d="M1 15V8.5a.5.5 0 0 1 .5-.5h17a.5.5 0 0 1 .5.5V15"></path><circle cx="6.5" cy="16" r="1.75"></circle><path d="M1 15h2.75"></path><path d="M8.25 15H19"></path><path d="M2.5 15v2.5"></path><path d="M1 17.5h3"></path><circle cx="1.5" cy="8" r=".4" fill="currentColor"></circle><path d="M20.5 4l2 2-2 2"></path><path d="M22.5 6h-3"></path><path d="M22 3v2"></path></g></svg>