<svg xmlns="http://www.w3.org/2000/svg" width="24" height="24" viewBox="0 0 32 40" fill="none" stroke="currentColor" stroke-width="1.75" stroke-linecap="round" stroke-linejoin="round"><path d="M16 38c0 0-13-14-13-22a13 13 0 0 1 26 0c0 8-13 22-13 22z" fill="currentColor" opacity="0.15" stroke="currentColor" stroke-width="1.5"></path><g transform="translate(4,3)" stroke-width="1.5"><path d="M4 2.5h10a1 1 0 0 1 1 1v17a1 1 0 0 1-1 1H4a1 1 0 0 1-1-1v-17a1 1 0 0 1 1-1z"></path><path d="M6 8c1-1.5 3-1.5 3 0s-2 1.5-1 3c.5.75 1.5 1 2.5.5"></path><path d="M6 15h6"></path><path d="M6 18h4"></path><path d="M18 4v5c0 2.5-2 4.5-3.5 5.5"></path><path d="M18 4c1.5 0 3.5 1 3.5 1v4c0 2.5-2 4.5-3.5 5.5"></path><path d="M17.5 8l1.5 1.5 2.5-2.5"></path></g></svg>