<svg xmlns="http://www.w3.org/2000/svg" width="24" height="24" viewBox="0 0 32 40" fill="none" stroke="currentColor" stroke-width="1.75" stroke-linecap="round" stroke-linejoin="round"><path d="M16 38c0 0-13-14-13-22a13 13 0 0 1 26 0c0 8-13 22-13 22z" fill="currentColor" opacity="0.15" stroke="currentColor" stroke-width="1.5"></path><g transform="translate(4,3)" stroke-width="1.5"><rect x="2" y="10" width="20" height="11" rx="1"></rect><path d="M5 10v-3"></path><path d="M19 10v-3"></path><path d="M3.5 8h17"></path><rect x="4.5" y="13" width="6" height="3" rx=".5"></rect><rect x="13.5" y="13" width="6" height="3" rx=".5"></rect><path d="M17 2a3 3 0 0 1-2.5 4A3 3 0 0 0 17 2z"></path><path d="M4.5 18h6"></path><path d="M13.5 18h6"></path></g></svg>