<svg xmlns="http://www.w3.org/2000/svg" width="24" height="24" viewBox="0 0 32 40" fill="none" stroke="currentColor" stroke-width="1.75" stroke-linecap="round" stroke-linejoin="round"><path d="M16 38c0 0-13-14-13-22a13 13 0 0 1 26 0c0 8-13 22-13 22z" fill="currentColor" opacity="0.15" stroke="currentColor" stroke-width="1.5"></path><g transform="translate(4,3)" stroke-width="1.5"><path d="M3 16.5v-3a1 1 0 0 1 .4-.8L5 11h2l2-4h6l2 4h2l1.6 1.7a1 1 0 0 1 .4.8v3"></path><path d="M9 7h6"></path><path d="M10.5 5v2"></path><path d="M13.5 5v2"></path><circle cx="7.5" cy="17.5" r="2"></circle><circle cx="16.5" cy="17.5" r="2"></circle><path d="M1 19.5h3.5"></path><path d="M18.5 19.5H23"></path><path d="M9.5 19.5h5"></path></g></svg>