<svg xmlns="http://www.w3.org/2000/svg" width="24" height="24" viewBox="0 0 32 40" fill="none" stroke="currentColor" stroke-width="1.75" stroke-linecap="round" stroke-linejoin="round"><path d="M16 38c0 0-13-14-13-22a13 13 0 0 1 26 0c0 8-13 22-13 22z" fill="currentColor" opacity="0.15" stroke="currentColor" stroke-width="1.5"></path><g transform="translate(4,3)" stroke-width="1.5"><rect x="2" y="14" width="20" height="4" rx="1"></rect><path d="M5 14v-4"></path><path d="M19 14v-4"></path><path d="M5 10h14"></path><path d="M12 10V7"></path><path d="M9 7h6"></path><path d="M12 7V5"></path><path d="M6 16h2"></path><path d="M10 16h4"></path><path d="M16 16h2"></path><path d="M2 18v2h3"></path><path d="M22 18v2h-3"></path><path d="M7 20h10"></path></g></svg>