<svg xmlns="http://www.w3.org/2000/svg" width="24" height="24" viewBox="0 0 32 40" fill="none" stroke="currentColor" stroke-width="1.75" stroke-linecap="round" stroke-linejoin="round"><path d="M16 38c0 0-13-14-13-22a13 13 0 0 1 26 0c0 8-13 22-13 22z" fill="currentColor" opacity="0.15" stroke="currentColor" stroke-width="1.5"></path><g transform="translate(4,3)" stroke-width="1.5"><rect x="3" y="8" width="14" height="10" rx="1"></rect><path d="M3 12h14"></path><path d="M7 8v10"></path><path d="M13 8v10"></path><path d="M19 4l2 4-1 1"></path><path d="M19 4l-2 4 1 1"></path><path d="M18 10l1-1 1 1"></path><path d="M17 12l3 1"></path><path d="M17 14l3-1"></path><path d="M20 16l1 3"></path><path d="M22 16l-1 3"></path></g></svg>