<svg xmlns="http://www.w3.org/2000/svg" width="24" height="24" viewBox="0 0 32 40" fill="none" stroke="currentColor" stroke-width="1.75" stroke-linecap="round" stroke-linejoin="round"><path d="M16 38c0 0-13-14-13-22a13 13 0 0 1 26 0c0 8-13 22-13 22z" fill="currentColor" opacity="0.15" stroke="currentColor" stroke-width="1.5"></path><g transform="translate(4,3)" stroke-width="1.5"><rect x="3" y="2" width="18" height="20" rx="2"></rect><path d="M7 5.5h10"></path><rect x="7" y="15" width="2.5" height="4" rx=".5"></rect><rect x="10.75" y="12" width="2.5" height="7" rx=".5"></rect><rect x="14.5" y="9.5" width="2.5" height="9.5" rx=".5"></rect><path d="M7 8.5h3"></path><path d="M7 10.5h2"></path><circle cx="17" cy="8.5" r="2.5"></circle><path d="M16 8.5h2"></path></g></svg>