<svg xmlns="http://www.w3.org/2000/svg" width="24" height="24" viewBox="0 0 32 40" fill="none" stroke="currentColor" stroke-width="1.75" stroke-linecap="round" stroke-linejoin="round"><path d="M16 38c0 0-13-14-13-22a13 13 0 0 1 26 0c0 8-13 22-13 22z" fill="currentColor" opacity="0.15" stroke="currentColor" stroke-width="1.5"></path><g transform="translate(4,3)" stroke-width="1.5"><circle cx="8" cy="6" r="3"></circle><path d="M2 19v-2a4 4 0 0 1 4-4h4a4 4 0 0 1 4 4v2"></path><path d="M16 6h3l1.5 2h2"></path><path d="M16 6v2h3l1 1v1.5"></path><circle cx="19" cy="11" r="1"></circle><path d="M16 4h2"></path><path d="M19 14v3"></path><path d="M17 16h4"></path></g></svg>