<svg xmlns="http://www.w3.org/2000/svg" width="24" height="24" viewBox="0 0 32 40" fill="none" stroke="currentColor" stroke-width="1.75" stroke-linecap="round" stroke-linejoin="round"><path d="M16 38c0 0-13-14-13-22a13 13 0 0 1 26 0c0 8-13 22-13 22z" fill="currentColor" opacity="0.15" stroke="currentColor" stroke-width="1.5"></path><g transform="translate(4,3)" stroke-width="1.5"><circle cx="12" cy="14" r="6"></circle><circle cx="12" cy="14" r="2.5"></circle><circle cx="12" cy="14" r=".75" fill="currentColor"></circle><path d="M4.5 5l2.5 2.5"></path><path d="M4.5 5c-1-1-1-2.5 0-3.5s2.5-1 3.5 0"></path><path d="M19.5 23l-2.5-2.5"></path><path d="M19.5 23c1 1 2.5 1 3.5 0s1-2.5 0-3.5"></path><path d="M7 7.5l10 10"></path></g></svg>