<svg xmlns="http://www.w3.org/2000/svg" width="24" height="24" viewBox="0 0 32 40" fill="none" stroke="currentColor" stroke-width="1.75" stroke-linecap="round" stroke-linejoin="round"><path d="M16 38c0 0-13-14-13-22a13 13 0 0 1 26 0c0 8-13 22-13 22z" fill="currentColor" opacity="0.15" stroke="currentColor" stroke-width="1.5"></path><g transform="translate(4,3)" stroke-width="1.5"><path d="M4 17V10a1 1 0 0 1 1-1h10a1 1 0 0 1 1 1v7"></path><path d="M16 11h2.5l2 2v4h-4.5"></path><circle cx="7" cy="18" r="1.75"></circle><circle cx="14" cy="18" r="1.75"></circle><path d="M4 18h1.25"></path><path d="M8.75 18h3.5"></path><path d="M15.75 18H20"></path><path d="M2 5c1 2 2 2 3 0s2-2 3 0"></path><path d="M10 5c1 2 2 2 3 0s2-2 3 0"></path><path d="M18 5c1 2 2 2 3 0"></path><path d="M3 7.5c1 1.5 1.5 1.5 2.5 0"></path><path d="M7 7.5c1 1.5 1.5 1.5 2.5 0"></path></g></svg>