<svg xmlns="http://www.w3.org/2000/svg" width="24" height="24" viewBox="0 0 32 40" fill="none" stroke="currentColor" stroke-width="1.75" stroke-linecap="round" stroke-linejoin="round"><path d="M16 38c0 0-13-14-13-22a13 13 0 0 1 26 0c0 8-13 22-13 22z" fill="currentColor" opacity="0.15" stroke="currentColor" stroke-width="1.5"></path><g transform="translate(4,3)" stroke-width="1.5"><circle cx="12" cy="12" r="9"></circle><path d="M12 7v4l2 2"></path><path d="M21 5l1.5-1.5"></path><path d="M3 5L1.5 3.5"></path><path d="M22 12h1"></path><path d="M1 12h1"></path><path d="M12 21v1"></path><path d="M12 2v1"></path><path d="M16 4l.5-1"></path><path d="M8 4l-.5-1"></path></g></svg>