<svg xmlns="http://www.w3.org/2000/svg" width="24" height="24" viewBox="0 0 32 40" fill="none" stroke="currentColor" stroke-width="1.75" stroke-linecap="round" stroke-linejoin="round"><path d="M16 38c0 0-13-14-13-22a13 13 0 0 1 26 0c0 8-13 22-13 22z" fill="currentColor" opacity="0.15" stroke="currentColor" stroke-width="1.5"></path><g transform="translate(4,3)" stroke-width="1.5"><rect x="2" y="4" width="20" height="16" rx="2"></rect><path d="M9 16V8h3a2.5 2.5 0 0 1 0 5H9"></path><path d="M16 8v2a2 2 0 0 1-2 2"></path><path d="M17 8a2.5 2.5 0 0 1 2.5 2.5c0 1.5-1 2.5-2.5 2.5"></path><path d="M16 13v3"></path><path d="M14.5 14.5h3"></path></g></svg>