<svg xmlns="http://www.w3.org/2000/svg" width="24" height="24" viewBox="0 0 32 40" fill="none" stroke="currentColor" stroke-width="1.75" stroke-linecap="round" stroke-linejoin="round"><path d="M16 38c0 0-13-14-13-22a13 13 0 0 1 26 0c0 8-13 22-13 22z" fill="currentColor" opacity="0.15" stroke="currentColor" stroke-width="1.5"></path><g transform="translate(4,3)" stroke-width="1.5"><path d="M4 21V12a1 1 0 0 1 1-1h14a1 1 0 0 1 1 1v9"></path><path d="M2 21h20"></path><path d="M7 15h10"></path><path d="M7 15v-2"></path><path d="M17 15v-2"></path><path d="M9 18h6v3H9z"></path><path d="M10 4a2 2 0 0 1 4 0"></path><path d="M12 6v5"></path><path d="M9 8h6"></path></g></svg>