<svg xmlns="http://www.w3.org/2000/svg" width="24" height="24" viewBox="0 0 32 40" fill="none" stroke="currentColor" stroke-width="1.75" stroke-linecap="round" stroke-linejoin="round"><path d="M16 38c0 0-13-14-13-22a13 13 0 0 1 26 0c0 8-13 22-13 22z" fill="currentColor" opacity="0.15" stroke="currentColor" stroke-width="1.5"></path><g transform="translate(4,3)" stroke-width="1.5"><path d="M15 7H3.5a1 1 0 0 0-1 1v8.5"></path><path d="M15 7v4h3.5l2.5 3v2.5"></path><path d="M2.5 12h13"></path><circle cx="5" cy="17.5" r="1.75"></circle><circle cx="11" cy="17.5" r="1.75"></circle><circle cx="17.5" cy="17.5" r="1.75"></circle><path d="M1 10h1.5"></path><path d="M21.5 10h1.5"></path></g></svg>