<svg xmlns="http://www.w3.org/2000/svg" width="24" height="24" viewBox="0 0 32 40" fill="none" stroke="currentColor" stroke-width="1.75" stroke-linecap="round" stroke-linejoin="round"><path d="M16 38c0 0-13-14-13-22a13 13 0 0 1 26 0c0 8-13 22-13 22z" fill="currentColor" opacity="0.15" stroke="currentColor" stroke-width="1.5"></path><g transform="translate(4,3)" stroke-width="1.5"><rect x="5" y="2" width="10" height="18" rx="1.5"></rect><path d="M3 4h2"></path><path d="M3 4v4h2"></path><path d="M8 6h4"></path><path d="M8 9h3"></path><path d="M8 12l1.5 1.5 3-3"></path><path d="M8 16h4"></path><path d="M18 8l-1.5 1.5"></path><path d="M18 8l1.5 1.5"></path><path d="M18 5v3"></path><circle cx="18" cy="15" r="3"></circle><path d="M18 13.5v1.5h1.5"></path></g></svg>