<svg xmlns="http://www.w3.org/2000/svg" width="24" height="24" viewBox="0 0 32 40" fill="none" stroke="currentColor" stroke-width="1.75" stroke-linecap="round" stroke-linejoin="round"><path d="M16 38c0 0-13-14-13-22a13 13 0 0 1 26 0c0 8-13 22-13 22z" fill="currentColor" opacity="0.15" stroke="currentColor" stroke-width="1.5"></path><g transform="translate(4,3)" stroke-width="1.5"><path d="M12 2l7 3v5c0 5-3 9-7 10.5C8 19 5 15 5 10V5z"></path><path d="M9 11l2 2 4-4"></path><path d="M2 5h2"></path><path d="M2 8h3"></path><path d="M2 11h3"></path><path d="M20 5h2"></path><path d="M19 8h3"></path><path d="M19 11h3"></path></g></svg>