<svg xmlns="http://www.w3.org/2000/svg" width="24" height="24" viewBox="0 0 32 40" fill="none" stroke="currentColor" stroke-width="1.75" stroke-linecap="round" stroke-linejoin="round"><path d="M16 38c0 0-13-14-13-22a13 13 0 0 1 26 0c0 8-13 22-13 22z" fill="currentColor" opacity="0.15" stroke="currentColor" stroke-width="1.5"></path><g transform="translate(4,3)" stroke-width="1.5"><path d="M3 21V8a1 1 0 0 1 1-1h10a1 1 0 0 1 1 1v13"></path><path d="M3 7l6-4 6 4"></path><path d="M6 11h2v2H6z"></path><path d="M10 11h2v2h-2z"></path><rect x="7" y="16" width="4" height="5" rx=".5"></rect><path d="M18 10v11"></path><path d="M18 10c0-2 2-3 4-2"></path><path d="M18 14c0-2 2-3 4-2"></path><circle cx="20" cy="18" r="1.5"></circle><path d="M15 21h7"></path></g></svg>