<svg xmlns="http://www.w3.org/2000/svg" width="24" height="24" viewBox="0 0 32 40" fill="none" stroke="currentColor" stroke-width="1.75" stroke-linecap="round" stroke-linejoin="round"><path d="M16 38c0 0-13-14-13-22a13 13 0 0 1 26 0c0 8-13 22-13 22z" fill="currentColor" opacity="0.15" stroke="currentColor" stroke-width="1.5"></path><g transform="translate(4,3)" stroke-width="1.5"><circle cx="8" cy="6" r="2.5"></circle><circle cx="16" cy="6" r="2.5"></circle><path d="M3 17v-2a4 4 0 0 1 4-4h2"></path><path d="M21 17v-2a4 4 0 0 0-4-4h-2"></path><path d="M9 17h6"></path><circle cx="12" cy="14" r="2"></circle><path d="M12 16v3"></path><path d="M9 19h6"></path></g></svg>