<svg xmlns="http://www.w3.org/2000/svg" width="24" height="24" viewBox="0 0 32 40" fill="none" stroke="currentColor" stroke-width="1.75" stroke-linecap="round" stroke-linejoin="round"><path d="M16 38c0 0-13-14-13-22a13 13 0 0 1 26 0c0 8-13 22-13 22z" fill="currentColor" opacity="0.15" stroke="currentColor" stroke-width="1.5"></path><g transform="translate(4,3)" stroke-width="1.5"><path d="M2 17V8a1 1 0 0 1 1-1h11v3h3l2 3v4"></path><path d="M2 13h12"></path><path d="M6 7L3 3"></path><path d="M6 7l1-5"></path><path d="M3 4.5c-1 0-1.5.75-1.5 1.25S2 7 3 7s1.5-.75 1.5-1.25S4 4.5 3 4.5z"></path><circle cx="7" cy="18" r="2"></circle><circle cx="15" cy="18" r="2"></circle><path d="M2 17h3"></path><path d="M9 17h4"></path><path d="M17 17h2"></path></g></svg>