<svg xmlns="http://www.w3.org/2000/svg" width="24" height="24" viewBox="0 0 32 40" fill="none" stroke="currentColor" stroke-width="1.75" stroke-linecap="round" stroke-linejoin="round"><path d="M16 38c0 0-13-14-13-22a13 13 0 0 1 26 0c0 8-13 22-13 22z" fill="currentColor" opacity="0.15" stroke="currentColor" stroke-width="1.5"></path><g transform="translate(4,3)" stroke-width="1.5"><path d="M3 21l4-8 5 4 5-8 4 8"></path><path d="M10 7L12 2l2 5"></path><path d="M8.5 7h7"></path><path d="M9.5 9h5"></path><path d="M12 4v1"></path><path d="M1 21h22"></path><path d="M7 13v-2h2"></path><path d="M15 9v-2h2"></path></g></svg>