<svg xmlns="http://www.w3.org/2000/svg" width="24" height="24" viewBox="0 0 32 40" fill="none" stroke="currentColor" stroke-width="1.75" stroke-linecap="round" stroke-linejoin="round"><path d="M16 38c0 0-13-14-13-22a13 13 0 0 1 26 0c0 8-13 22-13 22z" fill="currentColor" opacity="0.15" stroke="currentColor" stroke-width="1.5"></path><g transform="translate(4,3)" stroke-width="1.5"><path d="M3 5v3"></path><path d="M7 5v3"></path><path d="M11 5v3"></path><path d="M15 5v3"></path><path d="M19 5v3"></path><path d="M2 6h18.5"></path><path d="M2 7.5h18.5"></path><path d="M2 8h20v12a1 1 0 0 1-1 1H3a1 1 0 0 1-1-1V8z"></path><rect x="4" y="11" width="7" height="4" rx=".5"></rect><path d="M7.5 11v4"></path><path d="M14 14h5"></path><path d="M14 16h5"></path><path d="M14 18h5"></path></g></svg>