<svg xmlns="http://www.w3.org/2000/svg" width="24" height="24" viewBox="0 0 32 40" fill="none" stroke="currentColor" stroke-width="1.75" stroke-linecap="round" stroke-linejoin="round"><path d="M16 38c0 0-13-14-13-22a13 13 0 0 1 26 0c0 8-13 22-13 22z" fill="currentColor" opacity="0.15" stroke="currentColor" stroke-width="1.5"></path><g transform="translate(4,3)" stroke-width="1.5"><path d="M3 16.5v-3.5l2-2h2l1.5-3h7l1.5 3h2l2 2v3.5"></path><circle cx="7" cy="17.5" r="2"></circle><circle cx="17" cy="17.5" r="2"></circle><path d="M1 19.5h3"></path><path d="M19 19.5h4"></path><path d="M9 19.5h6"></path><path d="M10.5 5l1.5 3"></path><path d="M13.5 5l-1.5 3"></path><path d="M10 4h4"></path><path d="M9 4.5l.5-2h5l.5 2"></path><path d="M3 13h18"></path></g></svg>