<svg xmlns="http://www.w3.org/2000/svg" width="24" height="24" viewBox="0 0 32 40" fill="none" stroke="currentColor" stroke-width="1.75" stroke-linecap="round" stroke-linejoin="round"><path d="M16 38c0 0-13-14-13-22a13 13 0 0 1 26 0c0 8-13 22-13 22z" fill="currentColor" opacity="0.15" stroke="currentColor" stroke-width="1.5"></path><g transform="translate(4,3)" stroke-width="1.5"><path d="M2 17V9a1 1 0 0 1 1-1h10v9"></path><path d="M13 8v5h3.5l2.5 2v2"></path><circle cx="6" cy="17.5" r="2"></circle><circle cx="15" cy="17.5" r="2"></circle><path d="M2 17h2"></path><path d="M8 17h5"></path><path d="M17 17h2.5"></path><path d="M5 11l3 3"></path><path d="M8 11l-3 3"></path><path d="M20 9h2"></path><path d="M20 11.5h3"></path></g></svg>