<svg xmlns="http://www.w3.org/2000/svg" width="24" height="24" viewBox="0 0 32 40" fill="none" stroke="currentColor" stroke-width="1.75" stroke-linecap="round" stroke-linejoin="round"><path d="M16 38c0 0-13-14-13-22a13 13 0 0 1 26 0c0 8-13 22-13 22z" fill="currentColor" opacity="0.15" stroke="currentColor" stroke-width="1.5"></path><g transform="translate(4,3)" stroke-width="1.5"><path d="M2 20l4-8 5 4 5-8 6 12"></path><path d="M8.5 3v6"></path><path d="M7 3h3"></path><path d="M7 9h3"></path><path d="M8.5 4.5l-.75-.75"></path><path d="M8.5 4.5l.75-.75"></path><path d="M8.5 7.5l-.75.75"></path><path d="M8.5 7.5l.75.75"></path><path d="M16 5h5"></path><path d="M16 5v3"></path><path d="M21 5v3"></path></g></svg>