<svg xmlns="http://www.w3.org/2000/svg" width="24" height="24" viewBox="0 0 32 40" fill="none" stroke="currentColor" stroke-width="1.75" stroke-linecap="round" stroke-linejoin="round"><path d="M16 38c0 0-13-14-13-22a13 13 0 0 1 26 0c0 8-13 22-13 22z" fill="currentColor" opacity="0.15" stroke="currentColor" stroke-width="1.5"></path><g transform="translate(4,3)" stroke-width="1.5"><rect x="3" y="5" width="18" height="16" rx="1.5"></rect><path d="M3 9h18"></path><path d="M9 5v4"></path><path d="M15 5v4"></path><path d="M8 13l2 2-2 2"></path><path d="M16 13l-2 2 2 2"></path><path d="M11 12v6"></path><path d="M13 12v6"></path><circle cx="12" cy="15" r="1" fill="currentColor"></circle></g></svg>