<svg xmlns="http://www.w3.org/2000/svg" width="24" height="24" viewBox="0 0 32 40" fill="none" stroke="currentColor" stroke-width="1.75" stroke-linecap="round" stroke-linejoin="round"><path d="M16 38c0 0-13-14-13-22a13 13 0 0 1 26 0c0 8-13 22-13 22z" fill="currentColor" opacity="0.15" stroke="currentColor" stroke-width="1.5"></path><g transform="translate(4,3)" stroke-width="1.5"><path d="M7 3v18"></path><path d="M7 3h9a1 1 0 0 1 1 1v6a1 1 0 0 1-1 1H7"></path><path d="M10 6h3"></path><path d="M10 8.5h2"></path><path d="M18 14l2 2 3-3"></path><path d="M5 21h4"></path></g></svg>