<svg xmlns="http://www.w3.org/2000/svg" width="24" height="24" viewBox="0 0 32 40" fill="none" stroke="currentColor" stroke-width="1.75" stroke-linecap="round" stroke-linejoin="round"><path d="M16 38c0 0-13-14-13-22a13 13 0 0 1 26 0c0 8-13 22-13 22z" fill="currentColor" opacity="0.15" stroke="currentColor" stroke-width="1.5"></path><g transform="translate(4,3)" stroke-width="1.5"><path d="M3 21l7-14 4 8 7-14"></path><path d="M3 21h4"></path><circle cx="10" cy="7" r="2"></circle><path d="M8 7h-4"></path><path d="M14 7h3"></path><path d="M10 5V2"></path><path d="M10 9v2"></path><path d="M19 9v12"></path><path d="M17 9h4"></path><path d="M17 15h4"></path><path d="M17 21h4"></path></g></svg>