<svg xmlns="http://www.w3.org/2000/svg" width="24" height="24" viewBox="0 0 32 40" fill="none" stroke="currentColor" stroke-width="1.75" stroke-linecap="round" stroke-linejoin="round"><path d="M16 38c0 0-13-14-13-22a13 13 0 0 1 26 0c0 8-13 22-13 22z" fill="currentColor" opacity="0.15" stroke="currentColor" stroke-width="1.5"></path><g transform="translate(4,3)" stroke-width="1.5"><path d="M2 16.5V13l2-2h2l2-4h8l2 4h2l2 2v3.5"></path><path d="M9 7h6"></path><path d="M10 5v2"></path><path d="M14 5v2"></path><circle cx="6.5" cy="17.5" r="2"></circle><circle cx="12" cy="17.5" r="2"></circle><circle cx="17.5" cy="17.5" r="2"></circle><path d="M1 19.5h2.5"></path><path d="M19.5 19.5H23"></path><path d="M8.5 19.5h1"></path><path d="M14 19.5h1.5"></path></g></svg>