<svg xmlns="http://www.w3.org/2000/svg" width="24" height="24" viewBox="0 0 32 40" fill="none" stroke="currentColor" stroke-width="1.75" stroke-linecap="round" stroke-linejoin="round"><path d="M16 38c0 0-13-14-13-22a13 13 0 0 1 26 0c0 8-13 22-13 22z" fill="currentColor" opacity="0.15" stroke="currentColor" stroke-width="1.5"></path><g transform="translate(4,3)" stroke-width="1.5"><path d="M12 2l8 3v6c0 5.5-3.5 9.5-8 11-4.5-1.5-8-5.5-8-11V5z"></path><path d="M8 10h8v5H8z"></path><path d="M10 10V8a2 2 0 0 1 4 0v2"></path><path d="M12 12.5v1.5"></path></g></svg>