<svg xmlns="http://www.w3.org/2000/svg" width="24" height="24" viewBox="0 0 32 40" fill="none" stroke="currentColor" stroke-width="1.75" stroke-linecap="round" stroke-linejoin="round"><path d="M16 38c0 0-13-14-13-22a13 13 0 0 1 26 0c0 8-13 22-13 22z" fill="currentColor" opacity="0.15" stroke="currentColor" stroke-width="1.5"></path><g transform="translate(4,3)" stroke-width="1.5"><path d="M1 21h22"></path><path d="M3 21v-8h4v8"></path><path d="M5 13v-3"></path><path d="M3 10h4"></path><path d="M5 10V7"></path><path d="M2 7h6"></path><path d="M5 7V4"></path><path d="M4 4h2"></path><rect x="10" y="15" width="5" height="3" rx=".5"></rect><rect x="10" y="11" width="5" height="3" rx=".5"></rect><path d="M18 21v-6"></path><path d="M16 15h4"></path><path d="M17 17h2v4"></path></g></svg>