<svg xmlns="http://www.w3.org/2000/svg" width="24" height="24" viewBox="0 0 32 40" fill="none" stroke="currentColor" stroke-width="1.75" stroke-linecap="round" stroke-linejoin="round"><path d="M16 38c0 0-13-14-13-22a13 13 0 0 1 26 0c0 8-13 22-13 22z" fill="currentColor" opacity="0.15" stroke="currentColor" stroke-width="1.5"></path><g transform="translate(4,3)" stroke-width="1.5"><rect x="3" y="10" width="10" height="10" rx="1"></rect><path d="M3 14h10"></path><path d="M7 10V7l3-4"></path><path d="M13 7l-3-4"></path><path d="M5 17h6"></path><path d="M16 6h5v4"></path><path d="M16 6l5 4"></path><rect x="16" y="13" width="6" height="4" rx=".5"></rect><path d="M17 17v3"></path><path d="M21 17v3"></path><path d="M15.5 20h7"></path></g></svg>