<svg xmlns="http://www.w3.org/2000/svg" width="24" height="24" viewBox="0 0 32 40" fill="none" stroke="currentColor" stroke-width="1.75" stroke-linecap="round" stroke-linejoin="round"><path d="M16 38c0 0-13-14-13-22a13 13 0 0 1 26 0c0 8-13 22-13 22z" fill="currentColor" opacity="0.15" stroke="currentColor" stroke-width="1.5"></path><g transform="translate(4,3)" stroke-width="1.5"><path d="M2 20v-8a10 10 0 0 1 20 0v8"></path><path d="M2 20h20"></path><path d="M6 20V14"></path><path d="M18 20V14"></path><path d="M12 4v4"></path><path d="M10 6h4"></path><path d="M10 5l.5-.5"></path><path d="M14 5l-.5-.5"></path><path d="M10 7l.5.5"></path><path d="M14 7l-.5.5"></path><path d="M8 17h8v3H8z"></path></g></svg>