<svg xmlns="http://www.w3.org/2000/svg" width="24" height="24" viewBox="0 0 32 40" fill="none" stroke="currentColor" stroke-width="1.75" stroke-linecap="round" stroke-linejoin="round"><path d="M16 38c0 0-13-14-13-22a13 13 0 0 1 26 0c0 8-13 22-13 22z" fill="currentColor" opacity="0.15" stroke="currentColor" stroke-width="1.5"></path><g transform="translate(4,3)" stroke-width="1.5"><rect x="2" y="3" width="14" height="8" rx="1.5"></rect><path d="M5 5.5h4"></path><path d="M5 8h7"></path><rect x="5" y="13" width="14" height="8" rx="1.5"></rect><path d="M8 15.5h4"></path><path d="M8 18h7"></path><path d="M17 8l3 3-3 3"></path><path d="M20 11h-4"></path><circle cx="13" cy="5.5" r=".75" fill="currentColor"></circle><circle cx="16" cy="15.5" r=".75" fill="currentColor"></circle></g></svg>