<svg xmlns="http://www.w3.org/2000/svg" width="24" height="24" viewBox="0 0 32 40" fill="none" stroke="currentColor" stroke-width="1.75" stroke-linecap="round" stroke-linejoin="round"><path d="M16 38c0 0-13-14-13-22a13 13 0 0 1 26 0c0 8-13 22-13 22z" fill="currentColor" opacity="0.15" stroke="currentColor" stroke-width="1.5"></path><g transform="translate(4,3)" stroke-width="1.5"><rect x="3" y="4" width="10" height="14" rx="1"></rect><path d="M6 8h4"></path><path d="M6 11h3"></path><path d="M6 14h2"></path><path d="M15 7l3-3 3 3"></path><path d="M18 4v8"></path><path d="M15 15l3 3 3-3"></path><path d="M18 18v-6"></path><path d="M15 12h6"></path></g></svg>