<svg xmlns="http://www.w3.org/2000/svg" width="24" height="24" viewBox="0 0 32 40" fill="none" stroke="currentColor" stroke-width="1.75" stroke-linecap="round" stroke-linejoin="round"><path d="M16 38c0 0-13-14-13-22a13 13 0 0 1 26 0c0 8-13 22-13 22z" fill="currentColor" opacity="0.15" stroke="currentColor" stroke-width="1.5"></path><g transform="translate(4,3)" stroke-width="1.5"><path d="M6 21v-7"></path><path d="M4 14h4v7H4z"></path><path d="M10 21V10"></path><path d="M8 10h4v11H8z"></path><path d="M14 21v-5"></path><path d="M12 16h4v5h-4z"></path><path d="M18 21v-3"></path><path d="M16 18h4v3h-4z"></path><path d="M10 10l1-4 1 1.5L13 3l1 4.5L15 6l1 4"></path><circle cx="12" cy="6" r="1" fill="currentColor"></circle></g></svg>