<svg xmlns="http://www.w3.org/2000/svg" width="24" height="24" viewBox="0 0 32 40" fill="none" stroke="currentColor" stroke-width="1.75" stroke-linecap="round" stroke-linejoin="round"><path d="M16 38c0 0-13-14-13-22a13 13 0 0 1 26 0c0 8-13 22-13 22z" fill="currentColor" opacity="0.15" stroke="currentColor" stroke-width="1.5"></path><g transform="translate(4,3)" stroke-width="1.5"><rect x="5" y="4" width="8" height="16" rx="1"></rect><rect x="7" y="6.5" width="4" height="3" rx=".5"></rect><path d="M13 7h2.5a1 1 0 0 1 1 1v6"></path><path d="M16.5 14a1 1 0 0 1-1 1h-.5"></path><path d="M4 20h10"></path><path d="M9 12v2"></path><path d="M7.5 13h3"></path><path d="M19 4l2 2-2 2"></path><path d="M19 6h-2.5"></path></g></svg>