<svg xmlns="http://www.w3.org/2000/svg" width="24" height="24" viewBox="0 0 32 40" fill="none" stroke="currentColor" stroke-width="1.75" stroke-linecap="round" stroke-linejoin="round"><path d="M16 38c0 0-13-14-13-22a13 13 0 0 1 26 0c0 8-13 22-13 22z" fill="currentColor" opacity="0.15" stroke="currentColor" stroke-width="1.5"></path><g transform="translate(4,3)" stroke-width="1.5"><path d="M3 19c2-3 4-1 6-4s4-1 6-4 4-1 6-4"></path><circle cx="3" cy="19" r="2"></circle><circle cx="3" cy="19" r=".75" fill="currentColor"></circle><circle cx="21" cy="7" r="2"></circle><circle cx="21" cy="7" r=".75" fill="currentColor"></circle><circle cx="9" cy="15" r="1.5"></circle><circle cx="15" cy="11" r="1.5"></circle><path d="M6 17.5l.5-1"></path><path d="M12 13l.5-1"></path><path d="M18 9l.5-1"></path></g></svg>