<svg xmlns="http://www.w3.org/2000/svg" width="24" height="24" viewBox="0 0 32 40" fill="none" stroke="currentColor" stroke-width="1.75" stroke-linecap="round" stroke-linejoin="round"><path d="M16 38c0 0-13-14-13-22a13 13 0 0 1 26 0c0 8-13 22-13 22z" fill="currentColor" opacity="0.15" stroke="currentColor" stroke-width="1.5"></path><g transform="translate(4,3)" stroke-width="1.5"><rect x="2" y="3" width="20" height="18" rx="2"></rect><path d="M2 7h20"></path><rect x="4" y="9.5" width="7" height="4.5" rx="1"></rect><rect x="13" y="9.5" width="7" height="4.5" rx="1"></rect><rect x="4" y="16" width="7" height="3" rx="1"></rect><rect x="13" y="16" width="7" height="3" rx="1"></rect><circle cx="6" cy="5" r=".75" fill="currentColor"></circle><circle cx="9" cy="5" r=".75" fill="currentColor"></circle><circle cx="12" cy="5" r=".75" fill="currentColor"></circle></g></svg>