<svg xmlns="http://www.w3.org/2000/svg" width="24" height="24" viewBox="0 0 32 40" fill="none" stroke="currentColor" stroke-width="1.75" stroke-linecap="round" stroke-linejoin="round"><path d="M16 38c0 0-13-14-13-22a13 13 0 0 1 26 0c0 8-13 22-13 22z" fill="currentColor" opacity="0.15" stroke="currentColor" stroke-width="1.5"></path><g transform="translate(4,3)" stroke-width="1.5"><path d="M4 21V3a1 1 0 0 1 1-1h10a1 1 0 0 1 1 1v18"></path><path d="M4 21h12"></path><path d="M7 6h6"></path><path d="M7 9h4"></path><path d="M7 12h5"></path><path d="M18 5v10"></path><path d="M18 5c0-1.5 1.5-2.5 3-2"></path><path d="M18 10c0-1.5 1.5-2.5 3-2"></path><path d="M18 15c0-1.5 1.5-2.5 3-2"></path><circle cx="18" cy="18" r="2"></circle><path d="M16 18h-2"></path></g></svg>