<svg xmlns="http://www.w3.org/2000/svg" width="24" height="24" viewBox="0 0 32 40" fill="none" stroke="currentColor" stroke-width="1.75" stroke-linecap="round" stroke-linejoin="round"><path d="M16 38c0 0-13-14-13-22a13 13 0 0 1 26 0c0 8-13 22-13 22z" fill="currentColor" opacity="0.15" stroke="currentColor" stroke-width="1.5"></path><g transform="translate(4,3)" stroke-width="1.5"><path d="M4 21V8l3-5h2l3 5v13"></path><path d="M4 10h8"></path><path d="M12 8l8-4"></path><path d="M20 4v3"></path><path d="M18.5 7h3"></path><path d="M20 7v5"></path><path d="M19 12h2"></path><path d="M20 12l-1 2h2l-1 2"></path><path d="M4 21h8"></path><path d="M6 14v7"></path><path d="M10 14v7"></path></g></svg>