<svg xmlns="http://www.w3.org/2000/svg" width="24" height="24" viewBox="0 0 32 40" fill="none" stroke="currentColor" stroke-width="1.75" stroke-linecap="round" stroke-linejoin="round"><path d="M16 38c0 0-13-14-13-22a13 13 0 0 1 26 0c0 8-13 22-13 22z" fill="currentColor" opacity="0.15" stroke="currentColor" stroke-width="1.5"></path><g transform="translate(4,3)" stroke-width="1.5"><rect x="2" y="10" width="10" height="12" rx="1.5"></rect><path d="M5 14h4"></path><path d="M5 17h3"></path><path d="M14 4h-2a1 1 0 0 0-1 1v3"></path><path d="M14 4v4h3l2 2v2h-7"></path><circle cx="13.5" cy="12.5" r="1.25"></circle><circle cx="18" cy="12.5" r="1.25"></circle><path d="M16 16v2a1 1 0 0 1-1 1h-3"></path><path d="M17 18l2.5-2"></path><path d="M19 18l2-2"></path></g></svg>