<svg xmlns="http://www.w3.org/2000/svg" width="24" height="24" viewBox="0 0 32 40" fill="none" stroke="currentColor" stroke-width="1.75" stroke-linecap="round" stroke-linejoin="round"><path d="M16 38c0 0-13-14-13-22a13 13 0 0 1 26 0c0 8-13 22-13 22z" fill="currentColor" opacity="0.15" stroke="currentColor" stroke-width="1.5"></path><g transform="translate(4,3)" stroke-width="1.5"><path d="M3 21V5a1 1 0 0 1 1-1h12a1 1 0 0 1 1 1v16"></path><path d="M6 7h2"></path><path d="M12 7h2"></path><path d="M6 10.5h2"></path><path d="M12 10.5h2"></path><path d="M6 14h2"></path><path d="M12 14h2"></path><rect x="8" y="17" width="4" height="4" rx=".5"></rect><path d="M17 21h5v-5h-5"></path><path d="M18 18.5h3"></path><path d="M20 6a3 3 0 0 1-2.5 4.5A3.5 3.5 0 0 0 20 6z"></path></g></svg>