<svg xmlns="http://www.w3.org/2000/svg" width="24" height="24" viewBox="0 0 32 40" fill="none" stroke="currentColor" stroke-width="1.75" stroke-linecap="round" stroke-linejoin="round"><path d="M16 38c0 0-13-14-13-22a13 13 0 0 1 26 0c0 8-13 22-13 22z" fill="currentColor" opacity="0.15" stroke="currentColor" stroke-width="1.5"></path><g transform="translate(4,3)" stroke-width="1.5"><path d="M5 2h14a1 1 0 0 1 1 1v18l-8-4.5L4 21V3a1 1 0 0 1 1-1z"></path><path d="M9 8h6"></path><path d="M9 11h4"></path><path d="M12 5.5l1 2h2l-1.5 1.5.5 2-2-1-2 1 .5-2L9 7.5h2z"></path></g></svg>