<svg xmlns="http://www.w3.org/2000/svg" width="24" height="24" viewBox="0 0 32 40" fill="none" stroke="currentColor" stroke-width="1.75" stroke-linecap="round" stroke-linejoin="round"><path d="M16 38c0 0-13-14-13-22a13 13 0 0 1 26 0c0 8-13 22-13 22z" fill="currentColor" opacity="0.15" stroke="currentColor" stroke-width="1.5"></path><g transform="translate(4,3)" stroke-width="1.5"><path d="M12 2l2.5 3.5H18a1 1 0 0 1 1 1v3.5l3 2.5-3 2.5v3.5a1 1 0 0 1-1 1h-3.5L12 22l-2.5-3.5H6a1 1 0 0 1-1-1v-3.5L2 11.5l3-2.5V5.5a1 1 0 0 1 1-1h3.5z"></path><path d="M8.5 12l2.5 2.5 5-5"></path></g></svg>