<svg xmlns="http://www.w3.org/2000/svg" width="24" height="24" viewBox="0 0 32 40" fill="none" stroke="currentColor" stroke-width="1.75" stroke-linecap="round" stroke-linejoin="round"><path d="M16 38c0 0-13-14-13-22a13 13 0 0 1 26 0c0 8-13 22-13 22z" fill="currentColor" opacity="0.15" stroke="currentColor" stroke-width="1.5"></path><g transform="translate(4,3)" stroke-width="1.5"><circle cx="12" cy="13" r="8"></circle><circle cx="12" cy="13" r="2"></circle><path d="M12 11v-6"></path><path d="M10.3 14.5L5.1 17.5"></path><path d="M13.7 14.5l5.2 3"></path><path d="M18 3l4 2-4 2-4-2z"></path><path d="M18 7v1.5"></path><path d="M15.5 5.5v2a2.5 2.5 0 0 0 5 0v-2"></path></g></svg>