<svg xmlns="http://www.w3.org/2000/svg" width="24" height="24" viewBox="0 0 32 40" fill="none" stroke="currentColor" stroke-width="1.75" stroke-linecap="round" stroke-linejoin="round"><path d="M16 38c0 0-13-14-13-22a13 13 0 0 1 26 0c0 8-13 22-13 22z" fill="currentColor" opacity="0.15" stroke="currentColor" stroke-width="1.5"></path><g transform="translate(4,3)" stroke-width="1.5"><rect x="4" y="3" width="12" height="18" rx="1.5"></rect><path d="M7 7h6"></path><path d="M7 10h4"></path><path d="M7 13h5"></path><path d="M18.5 6l2 2-2 2"></path><path d="M20.5 8H18"></path><path d="M18.5 13v5a1 1 0 0 1-1 1"></path><path d="M18.5 18c-.5.5-1.5.5-2 0"></path></g></svg>