<svg xmlns="http://www.w3.org/2000/svg" width="24" height="24" viewBox="0 0 32 40" fill="none" stroke="currentColor" stroke-width="1.75" stroke-linecap="round" stroke-linejoin="round"><path d="M16 38c0 0-13-14-13-22a13 13 0 0 1 26 0c0 8-13 22-13 22z" fill="currentColor" opacity="0.15" stroke="currentColor" stroke-width="1.5"></path><g transform="translate(4,3)" stroke-width="1.5"><path d="M1 16V9a1 1 0 0 1 1-1h15a1 1 0 0 1 1 1v7"></path><circle cx="7" cy="17" r="1.75"></circle><path d="M1 16h3.25"></path><path d="M8.75 16h9.25"></path><path d="M3 16v2"></path><path d="M1.5 18h3"></path><circle cx="2" cy="8" r=".5" fill="currentColor"></circle><path d="M19 5l3 3-3 3"></path><path d="M22 8h-4"></path><path d="M20 12l-2 2"></path><path d="M20 16l-2-2"></path></g></svg>