<svg xmlns="http://www.w3.org/2000/svg" width="24" height="24" viewBox="0 0 32 40" fill="none" stroke="currentColor" stroke-width="1.75" stroke-linecap="round" stroke-linejoin="round"><path d="M16 38c0 0-13-14-13-22a13 13 0 0 1 26 0c0 8-13 22-13 22z" fill="currentColor" opacity="0.15" stroke="currentColor" stroke-width="1.5"></path><g transform="translate(4,3)" stroke-width="1.5"><path d="M3 4l6 2v14l-6-2V4z"></path><path d="M9 6l6-2v14l-6 2V6z"></path><path d="M15 4l6 2v14l-6-2V4z"></path><circle cx="8" cy="11" r="1.5"></circle><path d="M8 12.5v1.5"></path><circle cx="16" cy="10" r="1.5"></circle><path d="M16 11.5v1.5"></path></g></svg>