<svg xmlns="http://www.w3.org/2000/svg" width="24" height="24" viewBox="0 0 32 40" fill="none" stroke="currentColor" stroke-width="1.75" stroke-linecap="round" stroke-linejoin="round"><path d="M16 38c0 0-13-14-13-22a13 13 0 0 1 26 0c0 8-13 22-13 22z" fill="currentColor" opacity="0.15" stroke="currentColor" stroke-width="1.5"></path><g transform="translate(4,3)" stroke-width="1.5"><path d="M3 14v-2a1 1 0 0 1 .4-.8l1.6-1h1.5l1.5-3h3"></path><circle cx="6" cy="14.5" r="1.5"></circle><circle cx="9.5" cy="14.5" r="1.5"></circle><path d="M13 10h3l1.5 3h1.5l1.6 1a1 1 0 0 1 .4.8v2"></path><circle cx="15.5" cy="16.5" r="1.5"></circle><circle cx="19" cy="16.5" r="1.5"></circle><circle cx="12" cy="7" r="2.5"></circle><path d="M12 4.5v-.5"></path><path d="M12 9.5v.5"></path><path d="M9.5 7h-.5"></path><path d="M14.5 7h.5"></path><path d="M12 21v-3"></path></g></svg>